<svg width="23" height="24" viewBox="0 0 23 24" fill="none" xmlns="http://www.w3.org/2000/svg">
<path d="M7.18796 16.6154L16.4892 7.38462M11.5 0L14.7889 1.95692L18.608 2.29108L20.1092 5.79323L23 8.28923L22.1406 12L23 15.7089L20.1092 18.2068L18.608 21.7089L14.7889 22.0431L11.5 24L8.21296 22.0431L4.39203 21.7089L2.89267 18.2068L0 15.7089L0.859431 12L0 8.29108L2.89267 5.79323L4.39203 2.29108L8.21296 1.95692L11.5 0ZM9.97832 9.23077C9.97832 9.7204 9.78233 10.19 9.43347 10.5362C9.08461 10.8824 8.61145 11.0769 8.11808 11.0769C7.62472 11.0769 7.15156 10.8824 6.8027 10.5362C6.45383 10.19 6.25785 9.7204 6.25785 9.23077C6.25785 8.74114 6.45383 8.27156 6.8027 7.92534C7.15156 7.57912 7.62472 7.38462 8.11808 7.38462C8.61145 7.38462 9.08461 7.57912 9.43347 7.92534C9.78233 8.27156 9.97832 8.74114 9.97832 9.23077ZM17.4193 15.6923C17.4193 16.1819 17.2233 16.6515 16.8744 16.9977C16.5256 17.344 16.0524 17.5385 15.559 17.5385C15.0657 17.5385 14.5925 17.344 14.2437 16.9977C13.8948 16.6515 13.6988 16.1819 13.6988 15.6923C13.6988 15.2027 13.8948 14.7331 14.2437 14.3869C14.5925 14.0407 15.0657 13.8462 15.559 13.8462C16.0524 13.8462 16.5256 14.0407 16.8744 14.3869C17.2233 14.7331 17.4193 15.2027 17.4193 15.6923Z" stroke="#0E1112"/>
</svg>
