<svg width="41" height="40" viewBox="0 0 41 40" fill="none" xmlns="http://www.w3.org/2000/svg">
<path d="M19.706 22.4375L20.4676 21.676C21.0625 21.0811 21.0625 20.1165 20.4676 19.5216C19.8726 18.9266 18.9081 18.9266 18.3131 19.5216L17.4266 20.4081C17.2875 20.3239 17.1451 20.2409 16.9957 20.1607C15.1687 19.1796 12.9197 19.3308 11.1263 20.5554C9.48621 21.6753 8.59804 23.4533 8.80858 25.1956C8.91441 26.0713 9.16608 27.0284 9.61641 28.2183L4.14534 33.6893C3.54399 32.9556 3.27485 32.3104 3.01495 31.0671C2.8428 30.2435 2.03548 29.7158 1.21201 29.8877C0.388444 30.0598 -0.139681 30.867 0.0325685 31.6906C0.445319 33.665 1.02097 34.7444 1.98389 35.8508L1.07734 36.7573C0.482389 37.3523 0.482389 38.3168 1.07734 38.9118C1.6723 39.5067 2.63683 39.5067 3.23179 38.9118L4.23411 37.9095C5.21723 38.5325 6.32579 38.8826 7.5035 38.9324C7.59857 38.9365 7.69363 38.9384 7.78859 38.9384C9.20935 38.9384 10.6154 38.4907 11.7766 37.6638C12.9258 36.8453 13.765 35.689 14.1395 34.4076C14.5576 32.9769 14.4044 31.437 13.6962 29.9547C13.5359 29.6192 13.3742 29.2748 13.2162 28.9272L17.5064 24.637C17.9144 25.3511 17.9174 25.9195 17.9169 25.9597C17.8641 26.7956 18.4964 27.5181 19.333 27.5756C20.1723 27.6331 20.8996 26.9994 20.9572 26.16C21.0175 25.2844 20.749 23.8364 19.706 22.4375ZM10.947 31.2681C12.0206 33.5155 10.5006 34.832 10.0093 35.182C9.09824 35.8309 7.75538 36.139 6.49296 35.6506L10.9239 31.2197C10.9317 31.2359 10.9392 31.2517 10.947 31.2681ZM11.8335 24.83C11.7611 24.2306 12.158 23.5404 12.8446 23.0716C13.422 22.6773 14.296 22.4016 15.1575 22.6773L12.0302 25.8045C11.939 25.4619 11.8703 25.1341 11.8335 24.83ZM27.0159 13.1432C26.4209 12.5482 26.4209 11.5837 27.0159 10.9887L37.5583 0.446215C38.1532 -0.148738 39.1178 -0.148738 39.7127 0.446215C40.3077 1.04117 40.3077 2.00571 39.7127 2.60066L29.1704 13.1432C28.5755 13.738 27.6108 13.738 27.0159 13.1432Z" fill="url(#paint0_linear_1482_36723)"/>
<defs>
<linearGradient id="paint0_linear_1482_36723" x1="1.16184" y1="38.9962" x2="39.7123" y2="0.445713" gradientUnits="userSpaceOnUse">
<stop stop-color="#C3FFE8"/>
<stop offset="0.9973" stop-color="#F0FFF4"/>
</linearGradient>
</defs>
</svg>
