<svg width="52" height="25" viewBox="0 0 52 25" fill="none" xmlns="http://www.w3.org/2000/svg">
<path d="M35.1903 24.698C35.8068 21.6511 38.6851 19.2298 41.7787 19.2298C44.7575 19.2298 46.9045 21.4754 46.8456 24.3628C50.0672 24.4471 50.964 20.2048 50.964 20.2048C51.2351 19.0186 51.6404 16.706 51.9796 14.4361C52.0908 13.7353 52.0053 13.0173 51.7328 12.3622C50.8907 10.3963 49.873 8.51048 48.692 6.7275C47.5748 5.06086 45.701 4.07367 43.5621 4.03812C42.2865 4.01781 41.0342 4.00562 40.0887 4.00562L40.0805 3.9975C39.9587 1.95812 38.4718 0.396093 36.3847 0.209218C35.0268 0.0883591 29.648 0 27.0663 0C26.0405 0 24.5689 0.0142185 23.08 0.0385935V0.0325H23.0678H5.16641C4.93857 0.0323664 4.71293 0.0771438 4.50241 0.164273C4.29189 0.251402 4.10061 0.379173 3.9395 0.54028C3.77839 0.701387 3.65062 0.892671 3.56349 1.10319C3.47636 1.31372 3.43158 1.53935 3.43172 1.76719V1.77531C3.43172 2.23323 3.61362 2.67238 3.93742 2.99618C4.26121 3.31997 4.70037 3.50187 5.15828 3.50187H8.76679C9.20131 3.53391 9.60764 3.72904 9.90431 4.04812C10.201 4.3672 10.366 4.78665 10.3664 5.22234V5.23148C10.3671 5.45954 10.3228 5.68549 10.236 5.89641C10.1493 6.10733 10.0218 6.29907 9.86084 6.46066C9.69991 6.62225 9.50869 6.75052 9.29813 6.83814C9.08758 6.92575 8.86181 6.97098 8.63375 6.97125H6.78328C6.32348 6.97125 5.88252 7.1539 5.55739 7.47903C5.23226 7.80415 5.04961 8.24512 5.04961 8.70492C5.04947 8.93267 5.09422 9.15822 5.18128 9.36868C5.26835 9.57913 5.39603 9.77037 5.55703 9.93147C5.71803 10.0926 5.90919 10.2204 6.1196 10.3075C6.33 10.3947 6.55552 10.4396 6.78328 10.4396H8.63375C9.09382 10.4396 9.53504 10.6224 9.86036 10.9477C10.1857 11.273 10.3684 11.7142 10.3684 12.1743C10.3684 12.6344 10.1857 13.0756 9.86036 13.4009C9.53504 13.7262 9.09382 13.909 8.63375 13.909H1.71125C1.25136 13.909 0.810287 14.0916 0.485 14.4167C0.159712 14.7418 -0.0231682 15.1828 -0.0234375 15.6427C-0.0234375 16.1027 0.159324 16.5439 0.484641 16.8693C0.809958 17.1946 1.25118 17.3773 1.71125 17.3773H8.63375C9.09382 17.3773 9.53504 17.5601 9.86036 17.8854C10.1857 18.2107 10.3684 18.652 10.3684 19.112C10.3679 19.5717 10.1849 20.0124 9.85964 20.3373C9.53438 20.6622 9.09346 20.8447 8.63375 20.8447H6.49281C6.03301 20.8447 5.59205 21.0273 5.26692 21.3525C4.94179 21.6776 4.75914 22.1186 4.75914 22.5784C4.75914 23.0382 4.94176 23.4793 5.26686 23.8046C5.59196 24.1299 6.03292 24.3128 6.49281 24.313L13.3239 24.308L13.8916 22.8932C15.0545 20.7482 17.3681 19.2288 19.8178 19.2288C22.9124 19.2288 25.1102 21.6521 24.8685 24.701H35.1893L35.1903 24.698ZM17.9846 7.77867H15.6568C15.6546 7.77885 15.6525 7.77974 15.6509 7.7812C15.6492 7.78267 15.6481 7.78463 15.6477 7.78679L15.4334 9.31023C15.433 9.31145 15.433 9.31273 15.4333 9.31397C15.4335 9.3152 15.4341 9.31636 15.4349 9.31734C15.4357 9.31833 15.4367 9.31912 15.4378 9.31964C15.439 9.32017 15.4402 9.32043 15.4415 9.32039H17.1741C17.2592 9.31797 17.3437 9.33456 17.4215 9.36896C17.4993 9.40335 17.5685 9.45467 17.624 9.51919C17.6794 9.5837 17.7198 9.65978 17.7421 9.74188C17.7645 9.82398 17.7682 9.91003 17.753 9.99375C17.7234 10.1778 17.6304 10.3457 17.4903 10.4686C17.3502 10.5915 17.1716 10.6617 16.9852 10.6671H15.2505C15.2484 10.6671 15.2464 10.6677 15.2447 10.669C15.243 10.6703 15.2419 10.6722 15.2414 10.6742L14.9306 12.8873C14.9009 13.0713 14.808 13.2392 14.6679 13.3621C14.5277 13.485 14.3491 13.5552 14.1628 13.5606C14.0778 13.5631 13.9933 13.5465 13.9155 13.5121C13.8377 13.4777 13.7686 13.4263 13.7132 13.3618C13.6578 13.2973 13.6176 13.2212 13.5954 13.1391C13.5732 13.0569 13.5696 12.9709 13.5849 12.8873L14.3913 7.14695C14.4233 6.9526 14.5218 6.77541 14.67 6.64571C14.8183 6.51602 15.007 6.44189 15.2038 6.43601H18.1725C18.2575 6.43356 18.342 6.45014 18.4198 6.48454C18.4976 6.51894 18.5667 6.57029 18.6221 6.63483C18.6775 6.69937 18.7177 6.77548 18.7399 6.85758C18.7621 6.93968 18.7657 7.02571 18.7504 7.10937C18.7203 7.29248 18.6274 7.45941 18.4877 7.58153C18.348 7.70365 18.1701 7.77335 17.9846 7.77867ZM24.2063 6.89304C24.4482 7.1076 24.6183 7.3912 24.6938 7.70554C24.7783 8.06165 24.7921 8.43085 24.7344 8.79226C24.6638 9.35463 24.4337 9.88503 24.0712 10.3208C23.8499 10.5825 23.5688 10.787 23.2516 10.9169C23.2502 10.9185 23.2494 10.9205 23.2494 10.9225C23.2494 10.9246 23.2502 10.9266 23.2516 10.9281L23.8285 12.5927C23.9839 13.0396 23.5848 13.5606 23.0881 13.5606H23.0556C22.9351 13.5642 22.8166 13.5293 22.7173 13.461C22.618 13.3927 22.543 13.2945 22.5031 13.1808L21.8054 11.1495C21.8044 11.148 21.803 11.1467 21.8014 11.1459C21.7999 11.145 21.7981 11.1445 21.7962 11.1445H20.3134C20.3114 11.1446 20.3094 11.1453 20.3078 11.1466C20.3061 11.1478 20.3049 11.1496 20.3043 11.1516L20.0605 12.8862C20.0309 13.0703 19.9379 13.2382 19.7978 13.3611C19.6577 13.484 19.4791 13.5542 19.2927 13.5596C19.2077 13.5621 19.1232 13.5455 19.0454 13.5111C18.9677 13.4767 18.8985 13.4253 18.8431 13.3608C18.7878 13.2962 18.7475 13.2201 18.7253 13.138C18.7031 13.0559 18.6995 12.9699 18.7148 12.8862L19.5212 7.14593C19.5532 6.95159 19.6517 6.77439 19.7999 6.6447C19.9482 6.515 20.1369 6.44087 20.3337 6.435H22.6291C22.6291 6.435 23.6366 6.40351 24.2063 6.89304ZM30.5235 7.06164C30.4959 7.23353 30.4092 7.39039 30.2783 7.50516C30.1474 7.61993 29.9805 7.68542 29.8065 7.69031H27.1364C27.1343 7.69042 27.1324 7.69116 27.1307 7.69243C27.1291 7.6937 27.1279 7.69544 27.1273 7.69742L26.915 9.20461C26.9147 9.20583 26.9146 9.20711 26.9149 9.20834C26.9152 9.20958 26.9157 9.21073 26.9165 9.21172C26.9173 9.2127 26.9183 9.21349 26.9195 9.21402C26.9206 9.21455 26.9219 9.2148 26.9231 9.21476H28.997C29.0764 9.21241 29.1554 9.22784 29.2281 9.25992C29.3008 9.29201 29.3654 9.33993 29.4172 9.40019C29.469 9.46045 29.5066 9.53152 29.5274 9.60821C29.5482 9.6849 29.5516 9.76527 29.5373 9.84343C29.5097 10.0153 29.423 10.1722 29.2921 10.287C29.1612 10.4017 28.9943 10.4672 28.8203 10.4721H26.7454C26.7433 10.4722 26.7413 10.473 26.7397 10.4742C26.7381 10.4755 26.7369 10.4772 26.7362 10.4792L26.4813 12.2931C26.4813 12.2956 26.4822 12.2981 26.4839 12.3C26.4856 12.3018 26.4879 12.303 26.4905 12.3033H29.1585C29.2379 12.3009 29.3169 12.3164 29.3896 12.3484C29.4623 12.3805 29.5269 12.4284 29.5787 12.4887C29.6304 12.549 29.6681 12.62 29.6889 12.6967C29.7097 12.7734 29.7131 12.8538 29.6988 12.9319C29.6712 13.1038 29.5845 13.2607 29.4536 13.3755C29.3227 13.4902 29.1558 13.5557 28.9818 13.5606H25.6709C25.5815 13.5619 25.493 13.5435 25.4116 13.5067C25.3301 13.4699 25.2578 13.4157 25.1996 13.3479C25.1415 13.28 25.099 13.2003 25.0751 13.1142C25.0512 13.0281 25.0466 12.9378 25.0615 12.8497L25.8628 7.15C25.8948 6.95565 25.9933 6.77846 26.1415 6.64876C26.2897 6.51906 26.4784 6.44493 26.6753 6.43906H29.9852C30.0639 6.43719 30.1419 6.45275 30.2139 6.48462C30.2858 6.51649 30.3498 6.56387 30.4012 6.62338C30.4527 6.68289 30.4903 6.75304 30.5115 6.82881C30.5326 6.90458 30.5367 6.98409 30.5235 7.06164ZM36.0698 7.06164C36.0422 7.23353 35.9555 7.39039 35.8246 7.50516C35.6937 7.61993 35.5268 7.68542 35.3528 7.69031H32.6827C32.6807 7.69042 32.6787 7.69116 32.677 7.69243C32.6754 7.6937 32.6742 7.69544 32.6736 7.69742L32.4623 9.20461C32.462 9.20583 32.462 9.20711 32.4623 9.20834C32.4625 9.20958 32.4631 9.21073 32.4639 9.21172C32.4646 9.2127 32.4657 9.21349 32.4668 9.21402C32.4679 9.21455 32.4692 9.2148 32.4705 9.21476H34.5444C34.6238 9.21241 34.7027 9.22784 34.7754 9.25992C34.8481 9.29201 34.9127 9.33993 34.9645 9.40019C35.0163 9.46045 35.054 9.53152 35.0748 9.60821C35.0956 9.6849 35.0989 9.76527 35.0847 9.84343C35.0571 10.0153 34.9703 10.1722 34.8394 10.287C34.7085 10.4017 34.5417 10.4672 34.3676 10.4721H32.2917C32.2896 10.4722 32.2877 10.473 32.286 10.4742C32.2844 10.4755 32.2832 10.4772 32.2826 10.4792L32.0276 12.2931C32.0276 12.2956 32.0286 12.2981 32.0303 12.3C32.0319 12.3018 32.0343 12.303 32.0368 12.3033H34.7048C34.7843 12.3009 34.8632 12.3164 34.9359 12.3484C35.0086 12.3805 35.0732 12.4284 35.125 12.4887C35.1768 12.549 35.2144 12.62 35.2352 12.6967C35.256 12.7734 35.2594 12.8538 35.2451 12.9319C35.2175 13.1038 35.1308 13.2607 34.9999 13.3755C34.869 13.4902 34.7021 13.5557 34.5281 13.5606H31.2172C31.1278 13.5619 31.0393 13.5435 30.9579 13.5067C30.8765 13.4699 30.8041 13.4157 30.746 13.3479C30.6878 13.28 30.6453 13.2003 30.6214 13.1142C30.5976 13.0281 30.5929 12.9378 30.6078 12.8497L31.4091 7.15C31.4411 6.95565 31.5396 6.77846 31.6878 6.64876C31.8361 6.51906 32.0248 6.44493 32.2216 6.43906H35.5316C35.6102 6.43719 35.6883 6.45275 35.7602 6.48462C35.8321 6.51649 35.8961 6.56387 35.9475 6.62338C35.999 6.68289 36.0366 6.75304 36.0578 6.82881C36.0789 6.90458 36.083 6.98409 36.0698 7.06164ZM39.9292 6.41062C40.8362 6.41062 42.0102 6.42281 43.1884 6.44211C44.6163 6.46547 45.8655 7.12156 46.6151 8.24078C47.4157 9.44774 48.1353 10.7065 48.7692 12.0087C49.1044 12.6912 48.4879 13.5799 47.6805 13.5799H39.0223L39.9292 6.41062Z" fill="url(#paint0_linear_1482_36749)"/>
<defs>
<linearGradient id="paint0_linear_1482_36749" x1="19.086" y1="31.6482" x2="19.086" y2="1.05842e-06" gradientUnits="userSpaceOnUse">
<stop stop-color="#014162" stop-opacity="0.5"/>
<stop offset="0.457148" stop-color="#014162" stop-opacity="0.8"/>
<stop offset="0.9" stop-color="#014162"/>
</linearGradient>
</defs>
</svg>
