<svg width="10" height="22" viewBox="0 0 10 22" fill="none" xmlns="http://www.w3.org/2000/svg">
<path d="M4.92588 9.18227C3.24025 8.77764 3.04688 8.61697 3.04688 7.61719C3.04688 6.29159 4.99434 5.63702 5.78876 6.70373C6.29312 7.37618 7.24973 7.51309 7.92218 7.0072C8.59462 6.50284 8.73001 5.54775 8.22565 4.87378C7.68391 4.15167 6.9287 3.64152 6.09375 3.34252V1.52344C6.09375 0.681383 5.41237 0 4.57031 0C3.72826 0 3.04688 0.681383 3.04688 1.52344V3.32749C1.27745 3.9584 0 5.63367 0 7.61719C0 11.1327 2.63778 11.7664 4.21474 12.1459C5.90037 12.5505 6.09375 12.7112 6.09375 13.7109C6.09375 14.5515 5.41084 15.2344 4.57031 15.2344C4.08677 15.2344 3.64193 15.0127 3.35187 14.6244C2.84751 13.9519 1.89536 13.8195 1.21844 14.3209C0.545999 14.8253 0.410617 15.7804 0.914977 16.4543C1.45671 17.1765 2.21193 17.6866 3.04688 17.9856V19.8047C3.04688 20.6467 3.72826 21.3281 4.57031 21.3281C5.41237 21.3281 6.09375 20.6467 6.09375 19.8047V18.0006C7.86317 17.3697 9.14062 15.6945 9.14062 13.7109C9.14062 10.1955 6.50284 9.5617 4.92588 9.18227Z" fill="url(#paint0_linear_1482_36732)"/>
<defs>
<linearGradient id="paint0_linear_1482_36732" x1="4.57031" y1="21.3281" x2="4.57031" y2="0" gradientUnits="userSpaceOnUse">
<stop stop-color="#C3FFE8"/>
<stop offset="0.9973" stop-color="#F0FFF4"/>
</linearGradient>
</defs>
</svg>
