<svg width="52" height="52" viewBox="0 0 52 52" fill="none" xmlns="http://www.w3.org/2000/svg">
<path d="M52 26.1016C52 13.1241 42.3194 2.08213 29.4817 0.41732C28.6962 0.307227 27.9954 0.807117 27.808 1.55838L26.3099 7.55249C26.0835 8.45193 26.7122 9.3538 27.6518 9.43891C36.3223 10.2096 42.8594 17.3731 42.8594 26.1016C42.8594 31.7207 40.0356 36.9442 35.4073 40.0327L33.4138 37.3756C32.6526 36.3564 31.0273 36.6699 30.718 37.9201L27.6711 50.1076C27.43 51.0657 28.1567 52 29.1484 52H41.3359C42.5927 52 43.3049 50.5617 42.5544 49.5631L40.9074 47.3657C47.8849 42.5187 52 34.6873 52 26.1016ZM24.3482 42.5611C15.6777 41.7904 9.14062 34.6269 9.14062 25.8984C9.14062 20.2793 11.9644 15.0558 16.5927 11.9673L18.5862 14.6244C19.3407 15.6316 20.9703 15.34 21.282 14.0799L24.3289 1.89241C24.57 0.934273 23.8433 0 22.8516 0H10.6641C9.40733 0 8.69507 1.43833 9.44562 2.43689L11.0926 4.6343C4.11511 9.48127 0 17.3127 0 25.8984C0 38.8759 9.68063 49.9179 22.5183 51.5827C23.2766 51.6838 24.0031 51.1992 24.192 50.4416L25.6901 44.4475C25.9165 43.5481 25.2878 42.6462 24.3482 42.5611Z" fill="url(#paint0_linear_1482_36737)"/>
<defs>
<linearGradient id="paint0_linear_1482_36737" x1="19.0909" y1="66.625" x2="19.0909" y2="2.22817e-06" gradientUnits="userSpaceOnUse">
<stop stop-color="#014162" stop-opacity="0.5"/>
<stop offset="0.457148" stop-color="#014162" stop-opacity="0.8"/>
<stop offset="0.9" stop-color="#014162"/>
</linearGradient>
</defs>
</svg>
