<svg width="52" height="52" viewBox="0 0 52 52" fill="none" xmlns="http://www.w3.org/2000/svg">
<path d="M51.1689 19.2648L50.068 8.25404C50.0329 7.90416 49.878 7.57702 49.6293 7.3284L43.8841 1.58321C43.6355 1.33448 43.3085 1.1795 42.9585 1.14456L31.9476 0.0435239C29.3609 -0.215562 26.8228 0.690782 24.9843 2.52916L2.23102 25.2823C0.792289 26.7209 0 28.6339 0 30.6685C0 32.7031 0.792289 34.616 2.23102 36.0546L15.1578 48.9814C16.5965 50.4201 18.5094 51.2124 20.544 51.2124C22.5786 51.2124 24.4915 50.4201 25.9301 48.9814L48.6834 26.2283C50.5218 24.3898 51.4277 21.8517 51.1689 19.2648ZM41.3705 15.5872C39.784 17.1737 37.2117 17.1737 35.6252 15.5872C34.0387 14.0006 34.0387 11.4284 35.6252 9.84187C37.2117 8.25536 39.784 8.25536 41.3705 9.84187C42.957 11.4284 42.957 14.0006 41.3705 15.5872Z" fill="url(#paint0_linear_1482_36722)"/>
<defs>
<linearGradient id="paint0_linear_1482_36722" x1="18.8017" y1="65.6159" x2="18.8017" y2="2.19442e-06" gradientUnits="userSpaceOnUse">
<stop stop-color="#014162" stop-opacity="0.5"/>
<stop offset="0.457148" stop-color="#014162" stop-opacity="0.8"/>
<stop offset="0.9" stop-color="#014162"/>
</linearGradient>
</defs>
</svg>
